<svg width="375" height="552" viewBox="0 0 375 552" fill="none" xmlns="http://www.w3.org/2000/svg">
<rect width="375" height="453" fill="#5B5B5B"/>
<rect x="88" y="292" width="287" height="260" fill="#A9C2BE"/>
<path d="M88 292V331.76M88 552V507.66M183.951 292V331.76M183.951 552V507.66M278.623 292V419.466M278.623 552V507.66M375 292V374.639M375 552V507.66M88 331.76H183.951M88 331.76V374.639M183.951 331.76V419.466M88 374.639V463.319M88 374.639H136.615M375 374.639V463.319M375 374.639H230.434M88 463.319H136.615M88 463.319V507.66M375 463.319H230.434M375 463.319V507.66M183.951 419.466H278.623M183.951 419.466V507.66M278.623 419.466V507.66M230.434 292V374.639M230.434 374.639H136.615M136.615 374.639V463.319M136.615 463.319H230.434M88 507.66H183.951M230.434 463.319V552M278.623 507.66H375" stroke="#343434" stroke-opacity="0.2"/>
</svg>
